<svg width="24" height="24" viewBox="0 0 24 24" fill="none" xmlns="http://www.w3.org/2000/svg">
<path fill-rule="evenodd" clip-rule="evenodd" d="M1.14148 10.7905C0.495501 12.0601 0.0065251 13.3587 0.00520947 14.3771C-0.0518012 16.18 0.355606 17.5708 1.40065 18.8308C3.70301 21.6052 7.26793 22.8736 11.7398 22.9951C13.0387 23.0306 14.3127 22.8705 15.5665 22.6354C18.6025 22.066 20.9347 20.835 22.5104 18.9252C23.9778 17.1467 24.2799 15.2254 23.7694 13.226C23.5225 12.2584 23.0608 11.3331 22.5902 10.4096C21.4829 8.23786 20.2326 6.10743 18.9003 4.00014C18.203 2.89714 17.4934 1.79785 16.5962 0.765481C16.4181 0.560365 16.2177 0.361419 15.9958 0.178819C15.7257 -0.0435692 15.5204 -0.0148838 15.3402 0.253155C15.2687 0.35926 15.1985 0.469991 15.1661 0.583807C15.122 0.738889 15.0771 0.893894 15.0322 1.04891C14.8765 1.58636 14.7207 2.124 14.5995 2.6655C14.4468 3.34757 14.3583 3.6932 14.2684 4.04436C14.1814 4.38398 14.0931 4.72879 13.9442 5.38814C13.8607 5.75848 13.6764 6.14524 13.4963 6.52336C13.3963 6.7332 13.2976 6.9404 13.2181 7.14064C13.1115 7.40898 12.8892 7.66962 12.6427 7.8917C12.2638 8.23315 11.613 8.25505 11.1762 7.94969C10.9499 7.79145 10.7653 7.58757 10.6346 7.38122C10.2908 6.83836 10.0067 6.27839 9.86989 5.69635C9.65346 4.77549 9.48509 4.20134 9.31081 3.60708C9.15598 3.07911 8.99648 2.53524 8.7945 1.71827C8.6739 1.23062 8.4805 0.747283 8.25202 0.278447C8.08055 -0.0734885 7.79462 -0.0886021 7.49246 0.214907C7.19162 0.517183 6.91139 0.832105 6.65967 1.15566C5.6019 2.51436 4.76297 3.94431 3.97885 5.38814C3.00529 7.18144 2.06154 8.98306 1.14148 10.7905ZM17.8469 13.8333C17.8469 15.332 16.9774 16.5469 15.9048 16.5469C14.8322 16.5469 13.9627 15.332 13.9627 13.8333C13.9627 12.3345 14.8322 11.1196 15.9048 11.1196C16.9774 11.1196 17.8469 12.3345 17.8469 13.8333ZM8.33969 16.548C9.41228 16.548 10.2818 15.333 10.2818 13.8343C10.2818 12.3356 9.41228 11.1207 8.33969 11.1207C7.26709 11.1207 6.39759 12.3356 6.39759 13.8343C6.39759 15.333 7.26709 16.548 8.33969 16.548Z" fill="white"/>
</svg>
