<svg width="222" height="43" viewBox="0 0 222 43" fill="none" xmlns="http://www.w3.org/2000/svg">
<path d="M54.7061 13.8632H71.503V30.6602H67.297V18.0692H65.2076V30.6602H61.0015V18.0692H58.9121V30.6602H54.7061V13.8632Z" fill="white"/>
<path d="M86.8272 13.8632H91.0333V30.6602H86.8272V29.5476C85.6061 30.2531 84.168 30.6602 82.6484 30.6602C77.981 30.6602 74.2363 26.9154 74.2363 22.2752C74.2363 17.635 77.981 13.8632 82.6484 13.8632C84.168 13.8632 85.6061 14.2702 86.8272 15.0029V13.8632ZM82.6484 26.4813C84.9549 26.4813 86.8272 24.5818 86.8272 22.2752C86.8272 19.9416 84.9549 18.0692 82.6484 18.0692C80.3147 18.0692 78.4423 19.9416 78.4423 22.2752C78.4423 24.5818 80.3147 26.4813 82.6484 26.4813Z" fill="white"/>
<path d="M99.0037 20.1587H110.564V30.6602H93.7666V26.4813H106.357V24.3647H99.0037C96.1002 24.3647 93.7666 22.0039 93.7666 19.1275C93.7666 16.224 96.1002 13.8632 99.0037 13.8632H108.474V18.0692H99.0037C98.4339 18.0692 97.9726 18.5305 97.9726 19.1275C97.9726 19.6974 98.4339 20.1587 99.0037 20.1587Z" fill="white"/>
<path d="M120.957 26.4813C122.911 26.4813 124.566 25.1245 125.028 23.3064H129.288C128.772 27.4581 125.245 30.6602 120.957 30.6602C116.317 30.6602 112.545 26.9154 112.545 22.2752C112.545 17.635 116.317 13.8632 120.957 13.8632C125.245 13.8632 128.772 17.0652 129.288 21.2169H125.028C124.566 19.3989 122.911 18.0692 120.957 18.0692C118.624 18.0692 116.751 19.9416 116.751 22.2752C116.751 24.5818 118.624 26.4813 120.957 26.4813Z" fill="white"/>
<path d="M139.682 13.8632C144.322 13.8632 148.067 17.635 148.067 22.2752C148.067 26.9154 144.322 30.6602 139.682 30.6602C135.015 30.6602 131.27 26.9154 131.27 22.2752C131.27 17.635 135.015 13.8632 139.682 13.8632ZM139.682 26.4813C141.988 26.4813 143.861 24.5818 143.861 22.2752C143.861 19.9416 141.988 18.0692 139.682 18.0692C137.348 18.0692 135.476 19.9416 135.476 22.2752C135.476 24.5818 137.348 26.4813 139.682 26.4813Z" fill="white"/>
<path d="M156.876 26.4813H165.261V30.6602H152.67V18.0692H148.464V13.8632H152.67V7.56771H156.876V13.8632H163.172V18.0692H156.876V26.4813Z" fill="white"/>
<path d="M176.407 13.8632C181.047 13.8632 184.792 17.635 184.792 22.2752C184.792 26.9154 181.047 30.6602 176.407 30.6602C174.86 30.6602 173.422 30.2531 172.201 29.5476V30.6602H167.995V7.56771H172.201V15.0029C173.422 14.2702 174.86 13.8632 176.407 13.8632ZM176.407 26.4813C178.713 26.4813 180.586 24.5818 180.586 22.2752C180.586 19.9416 178.713 18.0692 176.407 18.0692C174.073 18.0692 172.201 19.9416 172.201 22.2752C172.201 24.5818 174.073 26.4813 176.407 26.4813Z" fill="white"/>
<path d="M195.158 13.8632C199.799 13.8632 203.543 17.635 203.543 22.2752C203.543 26.9154 199.799 30.6602 195.158 30.6602C190.491 30.6602 186.746 26.9154 186.746 22.2752C186.746 17.635 190.491 13.8632 195.158 13.8632ZM195.158 26.4813C197.465 26.4813 199.337 24.5818 199.337 22.2752C199.337 19.9416 197.465 18.0692 195.158 18.0692C192.825 18.0692 190.952 19.9416 190.952 22.2752C190.952 24.5818 192.825 26.4813 195.158 26.4813Z" fill="white"/>
<path d="M213.131 26.4813H221.516V30.6602H208.925V18.0692H204.719V13.8632H208.925V7.56771H213.131V13.8632H219.427V18.0692H213.131V26.4813Z" fill="white"/>
<path fill-rule="evenodd" clip-rule="evenodd" d="M2.06232 19.9237C0.895228 22.2678 0.011789 24.6655 0.00941201 26.546C-0.0935898 29.8748 0.642477 32.4427 2.53058 34.7692C6.69027 39.892 13.131 42.2338 21.2104 42.4582C23.5572 42.5237 25.8589 42.2281 28.1242 41.7941C33.6094 40.7428 37.823 38.4699 40.6698 34.9435C43.3209 31.6596 43.8668 28.1122 42.9445 24.4206C42.4985 22.634 41.6641 20.9255 40.814 19.2203C38.8134 15.2104 36.5545 11.2768 34.1474 7.38587C32.8876 5.34929 31.6056 3.31955 29.9845 1.41339C29.6628 1.03466 29.3007 0.667324 28.8998 0.330172C28.4118 -0.0804463 28.041 -0.0274815 27.7153 0.467425C27.5862 0.663338 27.4594 0.867793 27.4008 1.07794C27.3211 1.36429 27.24 1.65049 27.1588 1.93671C26.8775 2.92906 26.596 3.92175 26.3771 4.92159C26.1012 6.18097 25.9413 6.81913 25.7789 7.46752C25.6217 8.09459 25.4622 8.73125 25.1931 9.94868C25.0422 10.6325 24.7093 11.3466 24.3839 12.0448C24.2033 12.4322 24.0249 12.8148 23.8813 13.1845C23.6887 13.68 23.287 14.1612 22.8417 14.5713C22.1572 15.2017 20.9814 15.2421 20.1922 14.6783C19.7834 14.3862 19.4498 14.0097 19.2137 13.6287C18.5925 12.6264 18.0793 11.5924 17.832 10.5178C17.441 8.81748 17.1368 7.75737 16.822 6.66012C16.5422 5.68528 16.254 4.68107 15.8891 3.17261C15.6712 2.27221 15.3218 1.37978 14.909 0.514125C14.5992 -0.135689 14.0826 -0.163595 13.5367 0.396806C12.9932 0.954928 12.4869 1.5364 12.0321 2.13382C10.121 4.64252 8.60531 7.28279 7.18864 9.94868C5.42968 13.2598 3.72461 16.5863 2.06232 19.9237ZM32.2442 25.5418C32.2442 28.309 30.6732 30.5523 28.7354 30.5523C26.7975 30.5523 25.2266 28.309 25.2266 25.5418C25.2266 22.7745 26.7975 20.5312 28.7354 20.5312C30.6732 20.5312 32.2442 22.7745 32.2442 25.5418ZM15.0674 30.5543C17.0053 30.5543 18.5762 28.311 18.5762 25.5437C18.5762 22.7765 17.0053 20.5332 15.0674 20.5332C13.1295 20.5332 11.5586 22.7765 11.5586 25.5437C11.5586 28.311 13.1295 30.5543 15.0674 30.5543Z" fill="white"/>
</svg>
