<svg width="700" height="320" viewBox="0 0 700 320" fill="none" xmlns="http://www.w3.org/2000/svg">
<g clip-path="url(#clip0_2580_15806)">
<rect width="700" height="320" rx="16" fill="black"/>
<path d="M0 50H700" stroke="url(#paint0_linear_2580_15806)" stroke-opacity="0.17" stroke-dasharray="4 4"/>
<path d="M0 82H700" stroke="url(#paint1_linear_2580_15806)" stroke-opacity="0.17" stroke-dasharray="4 4"/>
<path d="M239 0V320" stroke="url(#paint2_linear_2580_15806)" stroke-opacity="0.17" stroke-dasharray="4 4"/>
<path d="M271 0V320" stroke="url(#paint3_linear_2580_15806)" stroke-opacity="0.17" stroke-dasharray="4 4"/>
<path d="M461 0V320" stroke="url(#paint4_linear_2580_15806)" stroke-opacity="0.17" stroke-dasharray="4 4"/>
<path d="M429 0V320" stroke="url(#paint5_linear_2580_15806)" stroke-opacity="0.17" stroke-dasharray="4 4"/>
<path d="M0 271H700" stroke="url(#paint6_linear_2580_15806)" stroke-opacity="0.17" stroke-dasharray="4 4"/>
<path d="M0 239H700" stroke="url(#paint7_linear_2580_15806)" stroke-opacity="0.17" stroke-dasharray="4 4"/>
<path d="M0 160H700" stroke="url(#paint8_linear_2580_15806)" stroke-opacity="0.17" stroke-dasharray="4 4"/>
<path d="M511 -1L189 321" stroke="url(#paint9_linear_2580_15806)" stroke-opacity="0.17" stroke-dasharray="4 4"/>
<path d="M511 321L189 -1" stroke="url(#paint10_linear_2580_15806)" stroke-opacity="0.17" stroke-dasharray="4 4"/>
<path d="M350 271C411.304 271 461 221.304 461 160C461 98.6964 411.304 49 350 49C288.696 49 239 98.6964 239 160C239 221.304 288.696 271 350 271Z" stroke="white" stroke-opacity="0.17" stroke-dasharray="4 4"/>
<path d="M350 239C393.63 239 429 203.63 429 160C429 116.37 393.63 81 350 81C306.37 81 271 116.37 271 160C271 203.63 306.37 239 350 239Z" stroke="white" stroke-opacity="0.17" stroke-dasharray="4 4"/>
<path fill-rule="evenodd" clip-rule="evenodd" d="M273.133 154.287C268.53 163.616 265.046 173.157 265.037 180.641C264.631 193.888 267.534 204.107 274.98 213.365C291.384 233.751 316.784 243.071 348.646 243.964C357.901 244.224 366.978 243.048 375.911 241.321C397.543 237.137 414.16 228.092 425.387 214.059C435.842 200.991 437.994 186.873 434.357 172.183C432.598 165.073 429.308 158.274 425.955 151.488C418.066 135.53 409.157 119.876 399.665 104.392C394.696 96.2877 389.641 88.2103 383.248 80.6246C381.979 79.1175 380.551 77.6556 378.97 76.3139C377.045 74.6799 375.583 74.8906 374.299 76.8601C373.79 77.6398 373.29 78.4534 373.058 79.2897C372.744 80.4292 372.424 81.5682 372.104 82.7072C370.995 86.6563 369.885 90.6068 369.021 94.5856C367.933 99.5974 367.303 102.137 366.662 104.717C366.043 107.213 365.414 109.746 364.352 114.591C363.757 117.312 362.444 120.154 361.161 122.933C360.449 124.474 359.745 125.997 359.179 127.468C358.42 129.44 356.835 131.355 355.079 132.987C352.38 135.496 347.743 135.657 344.631 133.413C343.018 132.25 341.703 130.752 340.772 129.236C338.322 125.247 336.298 121.133 335.323 116.856C333.781 110.089 332.581 105.871 331.34 101.504C330.236 97.6248 329.1 93.6285 327.661 87.6255C326.802 84.0423 325.424 80.4909 323.796 77.046C322.574 74.46 320.537 74.349 318.384 76.5791C316.24 78.8002 314.244 81.1142 312.45 83.4916C304.914 93.4751 298.936 103.982 293.349 114.591C286.413 127.768 279.688 141.006 273.133 154.287ZM392.159 176.644C392.159 187.657 385.964 196.584 378.322 196.584C370.679 196.584 364.484 187.657 364.484 176.644C364.484 165.632 370.679 156.705 378.322 156.705C385.964 156.705 392.159 165.632 392.159 176.644ZM324.42 196.592C332.062 196.592 338.258 187.665 338.258 176.652C338.258 165.64 332.062 156.713 324.42 156.713C316.778 156.713 310.583 165.64 310.583 176.652C310.583 187.665 316.778 196.592 324.42 196.592Z" fill="white"/>
</g>
<defs>
<linearGradient id="paint0_linear_2580_15806" x1="0" y1="50.5" x2="700" y2="50.5" gradientUnits="userSpaceOnUse">
<stop stop-color="white" stop-opacity="0"/>
<stop offset="0.25" stop-color="white"/>
<stop offset="0.75" stop-color="white"/>
<stop offset="1" stop-color="white" stop-opacity="0"/>
</linearGradient>
<linearGradient id="paint1_linear_2580_15806" x1="0" y1="82.5" x2="700" y2="82.5" gradientUnits="userSpaceOnUse">
<stop stop-color="white" stop-opacity="0"/>
<stop offset="0.25" stop-color="white"/>
<stop offset="0.75" stop-color="white"/>
<stop offset="1" stop-color="white" stop-opacity="0"/>
</linearGradient>
<linearGradient id="paint2_linear_2580_15806" x1="239" y1="320" x2="239" y2="0" gradientUnits="userSpaceOnUse">
<stop stop-color="white" stop-opacity="0"/>
<stop offset="0.25" stop-color="white"/>
<stop offset="0.75" stop-color="white"/>
<stop offset="1" stop-color="white" stop-opacity="0"/>
</linearGradient>
<linearGradient id="paint3_linear_2580_15806" x1="271" y1="320" x2="271" y2="0" gradientUnits="userSpaceOnUse">
<stop stop-color="white" stop-opacity="0"/>
<stop offset="0.25" stop-color="white"/>
<stop offset="0.75" stop-color="white"/>
<stop offset="1" stop-color="white" stop-opacity="0"/>
</linearGradient>
<linearGradient id="paint4_linear_2580_15806" x1="461" y1="320" x2="461" y2="0" gradientUnits="userSpaceOnUse">
<stop stop-color="white" stop-opacity="0"/>
<stop offset="0.25" stop-color="white"/>
<stop offset="0.75" stop-color="white"/>
<stop offset="1" stop-color="white" stop-opacity="0"/>
</linearGradient>
<linearGradient id="paint5_linear_2580_15806" x1="429" y1="320" x2="429" y2="0" gradientUnits="userSpaceOnUse">
<stop stop-color="white" stop-opacity="0"/>
<stop offset="0.25" stop-color="white"/>
<stop offset="0.75" stop-color="white"/>
<stop offset="1" stop-color="white" stop-opacity="0"/>
</linearGradient>
<linearGradient id="paint6_linear_2580_15806" x1="0" y1="271.5" x2="700" y2="271.5" gradientUnits="userSpaceOnUse">
<stop stop-color="white" stop-opacity="0"/>
<stop offset="0.25" stop-color="white"/>
<stop offset="0.75" stop-color="white"/>
<stop offset="1" stop-color="white" stop-opacity="0"/>
</linearGradient>
<linearGradient id="paint7_linear_2580_15806" x1="0" y1="239.5" x2="700" y2="239.5" gradientUnits="userSpaceOnUse">
<stop stop-color="white" stop-opacity="0"/>
<stop offset="0.25" stop-color="white"/>
<stop offset="0.75" stop-color="white"/>
<stop offset="1" stop-color="white" stop-opacity="0"/>
</linearGradient>
<linearGradient id="paint8_linear_2580_15806" x1="0" y1="160.5" x2="700" y2="160.5" gradientUnits="userSpaceOnUse">
<stop stop-color="white" stop-opacity="0"/>
<stop offset="0.25" stop-color="white"/>
<stop offset="0.75" stop-color="white"/>
<stop offset="1" stop-color="white" stop-opacity="0"/>
</linearGradient>
<linearGradient id="paint9_linear_2580_15806" x1="189" y1="321" x2="189" y2="-1" gradientUnits="userSpaceOnUse">
<stop stop-color="white" stop-opacity="0"/>
<stop offset="0.25" stop-color="white"/>
<stop offset="0.75" stop-color="white"/>
<stop offset="1" stop-color="white" stop-opacity="0"/>
</linearGradient>
<linearGradient id="paint10_linear_2580_15806" x1="189" y1="321" x2="189" y2="-1" gradientUnits="userSpaceOnUse">
<stop stop-color="white" stop-opacity="0"/>
<stop offset="0.25" stop-color="white"/>
<stop offset="0.75" stop-color="white"/>
<stop offset="1" stop-color="white" stop-opacity="0"/>
</linearGradient>
<clipPath id="clip0_2580_15806">
<rect width="700" height="320" rx="16" fill="white"/>
</clipPath>
</defs>
</svg>
